solid changer
facet normal 0.793353989632308 0.608760582558382 -1.6052374127278e-005
outer loop
vertex 653.837744947479 46.8996493087904 8.20393040795676
vertex 654.055748258465 46.5735004409688 12.7030020003368
vertex 654.055761137962 46.5733650217637 8.20393040795676
endloop
endfacet
facet normal 0.86602483124639 0.500000991505648 -1.25710435036807e-005
outer loop
vertex 654.055748258465 46.5735004409688 12.7030020003368
vertex 653.837744947479 46.8996493087904 8.20393040795676
vertex 653.837732067983 46.8997847279955 12.7030020003368
endloop
endfacet
facet normal -0.866025319336249 -0.500000146268156 -6.09627403867341e-007
outer loop
vertex 639.859601841079 23.7370053489126 16.7039701635016
vertex 640.077612030609 23.4107363328208 12.7039946142568
vertex 640.077618031559 23.4107210618865 16.7039701635016
endloop
endfacet
facet normal -0.793353440211355 -0.608761298789207 -1.13387679092189e-006
outer loop
vertex 640.077612030609 23.4107363328208 12.7039946142568
vertex 639.859601841079 23.7370053489126 16.7039701635016
vertex 639.859595840129 23.7370206198469 12.7039946142568
endloop
endfacet
facet normal 0.866025976185495 0.499999008412948 -1.25709805413999e-005
outer loop
vertex 654.055761137962 46.5733650217637 8.20393040795676
vertex 654.229310644643 46.2215507380647 12.7030020003368
vertex 654.22932352414 46.2214153188596 8.20393040795676
endloop
endfacet
facet normal 0.923879071929793 0.382684544202385 -8.8745638662535e-006
outer loop
vertex 654.229310644643 46.2215507380647 12.7030020003368
vertex 654.055761137962 46.5733650217637 8.20393040795676
vertex 654.055748258465 46.5735004409688 12.7030020003368
endloop
endfacet
facet normal -0.965925782364648 -0.258819209030223 4.61018124036856e-007
outer loop
vertex 639.559900573566 24.4605482136051 16.7039701635016
vertex 639.686033453949 24.0889703227516 12.7039946142568
vertex 639.686039454899 24.0889550518174 16.7039701635016
endloop
endfacet
facet normal -0.923879597859897 -0.382683274599542 -7.4944417014381e-008
outer loop
vertex 639.686033453949 24.0889703227516 12.7039946142568
vertex 639.559900573566 24.4605482136051 16.7039701635016
vertex 639.559894572616 24.4605634845394 12.7039946142568
endloop
endfacet
facet normal -0.382683322844978 -0.923879577871275 -2.95302825875852e-006
outer loop
vertex 641.309627755338 22.4653667513788 16.7039701635016
vertex 640.957672051483 22.6389444084936 12.7039946142568
vertex 641.309621754388 22.4653820223131 12.7039946142568
endloop
endfacet
facet normal -0.500000115679124 -0.866025336993283 -2.55615070187777e-006
outer loop
vertex 640.957672051483 22.6389444084936 12.7039946142568
vertex 641.309627755338 22.4653667513788 16.7039701635016
vertex 640.957678052433 22.6389291375593 16.7039701635016
endloop
endfacet
facet normal 0.965926147571234 0.258817846009373 -5.02616348370381e-006
outer loop
vertex 654.355462405476 45.8498221570712 8.20393040795676
vertex 654.432006631233 45.4650790176296 12.7030020003368
vertex 654.43201951073 45.4649435984245 8.20393040795676
endloop
endfacet
facet normal 0.99144469716027 0.130527439535099 -1.09191022805062e-006
outer loop
vertex 654.432006631233 45.4650790176296 12.7030020003368
vertex 654.355462405476 45.8498221570712 8.20393040795676
vertex 654.355449525979 45.8499575762763 12.7030020003368
endloop
endfacet
facet normal -0.141595243135991 -0.989924637085338 -3.56686383114576e-006
outer loop
vertex 642.066099475773 22.2626707647912 16.7039701635016
vertex 641.681214916175 22.3392431409797 12.7039946142568
vertex 642.066093474823 22.2626860357255 12.7039946142568
endloop
endfacet
facet normal -0.258819143122346 -0.965925800019095 -3.29937733832455e-006
outer loop
vertex 641.681214916175 22.3392431409797 12.7039946142568
vertex 642.066099475773 22.2626707647912 16.7039701635016
vertex 641.681220917125 22.3392278700454 16.7039701635016
endloop
endfacet
facet normal 0.991445025585403 0.130524944898544 -1.09183420565569e-006
outer loop
vertex 654.43201951073 45.4649435984245 8.20393040795676
vertex 654.457672047109 45.0735004409694 12.7030020003368
vertex 654.457684926606 45.0733650217643 8.20393040795676
endloop
endfacet
facet normal 0.999464608073462 0.0327184535857424 1.87554804287903e-006
outer loop
vertex 654.457672047109 45.0735004409694 12.7030020003368
vertex 654.43201951073 45.4649435984245 8.20393040795676
vertex 654.432006631233 45.4650790176296 12.7030020003368
endloop
endfacet
facet normal -0.793353240369758 -0.608761559227846 -1.133878085025e-006
outer loop
vertex 640.077618031559 23.4107210618865 16.7039701635016
vertex 640.336351707923 23.1157002762873 12.7039946142568
vertex 640.336357708873 23.115685005353 16.7039701635016
endloop
endfacet
facet normal -0.707106891898313 -0.707106670472866 -1.63872661108378e-006
outer loop
vertex 640.336351707923 23.1157002762873 12.7039946142568
vertex 640.077618031559 23.4107210618865 16.7039701635016
vertex 640.077612030609 23.4107363328208 12.7039946142568
endloop
endfacet
facet normal -0.991444839738207 -0.130526356554926 9.89093929297661e-007
outer loop
vertex 639.483343468311 24.8454267722524 16.7039701635016
vertex 639.559894572616 24.4605634845394 12.7039946142568
vertex 639.559900573566 24.4605482136051 16.7039701635016
endloop
endfacet
facet normal -0.965925870213289 -0.258818881174631 4.61019507504439e-007
outer loop
vertex 639.559894572616 24.4605634845394 12.7039946142568
vertex 639.483343468311 24.8454267722524 16.7039701635016
vertex 639.483337467361 24.8454420431867 12.7039946142568
endloop
endfacet
facet normal -0.25881894708001 -0.965925852548481 -3.29937783298084e-006
outer loop
vertex 641.681220917125 22.3392278700454 16.7039701635016
vertex 641.309621754388 22.4653820223131 12.7039946142568
vertex 641.681214916175 22.3392431409797 12.7039946142568
endloop
endfacet
facet normal -0.382683541881981 -0.923879487143178 -2.95302758377116e-006
outer loop
vertex 641.309621754388 22.4653820223131 12.7039946142568
vertex 641.681220917125 22.3392278700454 16.7039701635016
vertex 641.309627755338 22.4653667513788 16.7039701635016
endloop
endfacet
facet normal -0.258818925537566 0.965925858222114 -1.41934093638352e-005
outer loop
vertex 641.681220917137 47.9712626489001 16.7039779478798
vertex 642.066106349946 48.0476996058857 8.20393040795676
vertex 641.681227791298 47.9711425006315 8.20393040795676
endloop
endfacet
facet normal -0.130526231413985 0.991444856108479 -1.44533528803063e-005
outer loop
vertex 642.066106349946 48.0476996058857 8.20393040795676
vertex 641.681220917137 47.9712626489001 16.7039779478798
vertex 642.066099475785 48.0478197541543 16.7039779478798
endloop
endfacet
facet normal 0.499999367782244 0.866025768444845 -2.46347826069689e-005
outer loop
vertex 652.957672047112 47.6715766523227 12.7030020003368
vertex 653.283969213632 47.453425042638 8.20393040795676
vertex 652.957684926608 47.6714412331176 8.20393040795676
endloop
endfacet
facet normal 0.608762109152866 0.793352818088988 -2.21363115430616e-005
outer loop
vertex 653.283969213632 47.453425042638 8.20393040795676
vertex 652.957672047112 47.6715766523227 12.7030020003368
vertex 653.283956334136 47.4535604618431 12.7030020003368
endloop
endfacet
facet normal -0.999999999995771 4.95601845608454e-009 -2.90812914728006e-006
outer loop
vertex 650.457672047109 26.2370206197842 12.7044510857044
vertex 650.457684926606 43.2266852001658 8.20534970265955
vertex 650.457684926606 26.2368852005791 8.20537949332433
endloop
endfacet
facet normal -0.999999999995771 4.95601845608454e-009 -2.90812914728006e-006
outer loop
vertex 650.457684926606 43.2266852001658 8.20534970265955
vertex 650.457672047109 26.2370206197842 12.7044510857044
vertex 650.45767204711 43.2268206193709 12.7044212950396
endloop
endfacet
facet normal 0.382682887400652 0.923879757856608 -2.67117110391193e-005
outer loop
vertex 652.605722344205 47.8451390385027 12.7030020003368
vertex 652.957684926608 47.6714412331176 8.20393040795676
vertex 652.605735223701 47.8450036192976 8.20393040795676
endloop
endfacet
facet normal 0.500000631915412 0.866025038597221 -2.46347570234027e-005
outer loop
vertex 652.957684926608 47.6714412331176 8.20393040795676
vertex 652.605722344205 47.8451390385027 12.7030020003368
vertex 652.957672047112 47.6715766523227 12.7030020003368
endloop
endfacet
facet normal -0.608761162581677 0.793353544637148 -1.19948811704686e-005
outer loop
vertex 640.631393765418 47.4535451909066 16.7039779478798
vertex 640.957684926608 47.6714412331175 8.20393040795676
vertex 640.63140063958 47.453425042638 8.20393040795676
endloop
endfacet
facet normal -0.500000225989104 0.866025273212653 -1.29535630681736e-005
outer loop
vertex 640.957684926608 47.6714412331175 8.20393040795676
vertex 640.631393765418 47.4535451909066 16.7039779478798
vertex 640.957678052445 47.6715613813862 16.7039779478798
endloop
endfacet
facet normal -0.866025976234182 -0.499999008328579 1.25726041218322e-005
outer loop
vertex 639.859595840129 23.7370206198469 12.7039946142568
vertex 639.686046329074 24.0888349034838 8.20537949332433
vertex 639.859608715255 23.7368852005784 8.20537949332433
endloop
endfacet
facet normal -0.923879071888276 -0.382684544302591 8.87557644835566e-006
outer loop
vertex 639.686046329074 24.0888349034838 8.20537949332433
vertex 639.859595840129 23.7370206198469 12.7039946142568
vertex 639.686033453949 24.0889703227516 12.7039946142568
endloop
endfacet
facet normal -0.136711566901496 -0.990610890670247 -0.000103734462085151
outer loop
vertex 642.066093474823 22.2626860357255 12.7039946142568
vertex 641.681227791301 22.3391077217118 8.20537949332433
vertex 642.066106349946 22.2625506164577 8.20537949332433
endloop
endfacet
facet normal -0.258818620472927 -0.965925939652499 2.8335978548799e-005
outer loop
vertex 641.681227791301 22.3391077217118 8.20537949332433
vertex 642.066093474823 22.2626860357255 12.7039946142568
vertex 641.681214916175 22.3392431409797 12.7039946142568
endloop
endfacet
facet normal -0.991445025601299 -0.1305249447778 1.09158346984299e-006
outer loop
vertex 639.483337467361 24.8454420431867 12.7039946142568
vertex 639.457684926609 25.2368852005791 8.20537949332433
vertex 639.483350342487 24.8453066239189 8.20537949332433
endloop
endfacet
facet normal -0.999464591813696 -0.0327189503182248 -8.69667975832176e-007
outer loop
vertex 639.457684926609 25.2368852005791 8.20537949332433
vertex 639.483337467361 24.8454420431867 12.7039946142568
vertex 639.457672051483 25.2370206198469 12.7039946142568
endloop
endfacet
facet normal 0.258818620479282 0.965925939650905 -2.83322810358784e-005
outer loop
vertex 652.234129182417 47.9712779198366 12.7030020003368
vertex 652.605735223701 47.8450036192976 8.20393040795676
vertex 652.234142061914 47.9711425006315 8.20393040795676
endloop
endfacet
facet normal 0.382683977055738 0.923879306506693 -2.67116943368888e-005
outer loop
vertex 652.605735223701 47.8450036192976 8.20393040795676
vertex 652.234129182417 47.9712779198366 12.7030020003368
vertex 652.605722344205 47.8451390385027 12.7030020003368
endloop
endfacet
facet normal -0.923879993059525 -0.382682320398471 8.87550686702177e-006
outer loop
vertex 639.686033453949 24.0889703227516 12.7039946142568
vertex 639.559907447739 24.4604280652709 8.20537949332433
vertex 639.686046329074 24.0888349034838 8.20537949332433
endloop
endfacet
facet normal -0.965925504950445 -0.258820244302801 5.02662186091157e-006
outer loop
vertex 639.559907447739 24.4604280652709 8.20537949332433
vertex 639.686033453949 24.0889703227516 12.7039946142568
vertex 639.559894572616 24.4605634845394 12.7039946142568
endloop
endfacet
facet normal -3.36995651318747e-006 -0.999999999843078 1.73921552414689e-005
outer loop
vertex 655.357678052433 22.2370053489078 16.7039701635016
vertex 655.308384926606 22.2368852005791 8.20537949332433
vertex 655.357687141134 22.2368852005791 8.20537949332433
endloop
endfacet
facet normal -3.36995651318747e-006 -0.999999999843078 1.73921552414689e-005
outer loop
vertex 655.308384926606 22.2368852005791 8.20537949332433
vertex 655.357678052433 22.2370053489078 16.7039701635016
vertex 650.457684926606 22.2368852005791 8.20537949332433
endloop
endfacet
facet normal -3.36995651318747e-006 -0.999999999843078 1.73921552414689e-005
outer loop
vertex 650.457684926606 22.2368852005791 8.20537949332433
vertex 655.357678052433 22.2370053489078 16.7039701635016
vertex 652.357672051483 22.2370206198421 12.7039946142568
endloop
endfacet
facet normal -3.36995651318747e-006 -0.999999999843078 1.73921552414689e-005
outer loop
vertex 650.457684926606 22.2368852005791 8.20537949332433
vertex 652.357672051483 22.2370206198421 12.7039946142568
vertex 642.457684926606 22.2368852005785 8.20537949332433
endloop
endfacet
facet normal -3.36995651318747e-006 -0.999999999843078 1.73921552414689e-005
outer loop
vertex 652.357672051483 22.2370206198421 12.7039946142568
vertex 655.357678052433 22.2370053489078 16.7039701635016
vertex 652.357678052433 22.2370053489078 16.7039701635016
endloop
endfacet
facet normal -3.36995651318747e-006 -0.999999999843078 1.73921552414689e-005
outer loop
vertex 652.357672051483 22.2370206198421 12.7039946142568
vertex 642.45767204711 22.2370206197836 12.7044510857044
vertex 642.457684926606 22.2368852005785 8.20537949332433
endloop
endfacet
facet normal -0.0339775562651458 -0.999422574259378 -0.000209119601379695
outer loop
vertex 642.45767204711 22.2370206197836 12.7044510857044
vertex 652.357672051483 22.2370206198421 12.7039946142568
vertex 642.919548242606 22.237020619787 12.7044444971639
endloop
endfacet
facet normal -0.965926147602033 -0.258817845894424 5.02654782369849e-006
outer loop
vertex 639.559894572616 24.4605634845394 12.7039946142568
vertex 639.483350342487 24.8453066239189 8.20537949332433
vertex 639.559907447739 24.4604280652709 8.20537949332433
endloop
endfacet
facet normal -0.991444697144069 -0.130527439658154 1.09165951187253e-006
outer loop
vertex 639.483350342487 24.8453066239189 8.20537949332433
vertex 639.559894572616 24.4605634845394 12.7039946142568
vertex 639.483337467361 24.8454420431867 12.7039946142568
endloop
endfacet
facet normal -5.26494144840456e-007 -4.05462169068314e-007 0.999999999999779
outer loop
vertex 655.357678052433 22.2370053489078 16.7039701635016
vertex 652.357678052445 44.7370053488768 16.7039778953357
vertex 652.357678052433 22.2370053489078 16.7039701635016
endloop
endfacet
facet normal -5.26494144840456e-007 -4.05462169068314e-007 0.999999999999779
outer loop
vertex 652.357678052445 44.7370053488768 16.7039778953357
vertex 655.357678052433 22.2370053489078 16.7039701635016
vertex 655.357678052285 48.0734851700259 16.7040030824575
endloop
endfacet
facet normal -5.26494144840456e-007 -4.05462169068314e-007 0.999999999999779
outer loop
vertex 639.483343468311 24.8454267722524 16.7039701635016
vertex 639.457678052445 45.0734851700329 16.7039779478798
vertex 639.457678052433 25.2370053489126 16.7039701635016
endloop
endfacet
facet normal -5.26494144840456e-007 -4.05462169068314e-007 0.999999999999779
outer loop
vertex 639.457678052445 45.0734851700329 16.7039779478798
vertex 639.483343468311 24.8454267722524 16.7039701635016
vertex 639.483343468323 45.4650637466931 16.7039779478798
endloop
endfacet
facet normal -5.26494144840456e-007 -4.05462169068314e-007 0.999999999999779
outer loop
vertex 639.483343468323 45.4650637466931 16.7039779478798
vertex 639.483343468311 24.8454267722524 16.7039701635016
vertex 639.559900573566 24.4605482136051 16.7039701635016
endloop
endfacet
facet normal -5.26494144840456e-007 -4.05462169068314e-007 0.999999999999779
outer loop
vertex 639.483343468323 45.4650637466931 16.7039779478798
vertex 639.559900573566 24.4605482136051 16.7039701635016
vertex 639.559900573578 45.8499423053405 16.7039779478798
endloop
endfacet
facet normal -5.26494144840456e-007 -4.05462169068314e-007 0.999999999999779
outer loop
vertex 639.559900573578 45.8499423053405 16.7039779478798
vertex 639.559900573566 24.4605482136051 16.7039701635016
vertex 639.686039454899 24.0889550518174 16.7039701635016
endloop
endfacet
facet normal -5.26494144840456e-007 -4.05462169068314e-007 0.999999999999779
outer loop
vertex 639.559900573578 45.8499423053405 16.7039779478798
vertex 639.686039454899 24.0889550518174 16.7039701635016
vertex 639.686039454911 46.2215354671282 16.7039779478798
endloop
endfacet
facet normal -5.26494144840456e-007 -4.05462169068314e-007 0.999999999999779
outer loop
vertex 639.686039454911 46.2215354671282 16.7039779478798
vertex 639.686039454899 24.0889550518174 16.7039701635016
vertex 639.859601841079 23.7370053489126 16.7039701635016
endloop
endfacet
facet normal -5.26494144840456e-007 -4.05462169068314e-007 0.999999999999779
outer loop
vertex 639.686039454911 46.2215354671282 16.7039779478798
vertex 639.859601841079 23.7370053489126 16.7039701635016
vertex 639.859601841091 46.5734851700329 16.7039779478798
endloop
endfacet
facet normal -5.26494144840456e-007 -4.05462169068314e-007 0.999999999999779
outer loop
vertex 639.859601841091 46.5734851700329 16.7039779478798
vertex 639.859601841079 23.7370053489126 16.7039701635016
vertex 640.077618031559 23.4107210618865 16.7039701635016
endloop
endfacet
facet normal -5.26494144840456e-007 -4.05462169068314e-007 0.999999999999779
outer loop
vertex 639.859601841091 46.5734851700329 16.7039779478798
vertex 640.077618031559 23.4107210618865 16.7039701635016
vertex 640.077618031571 46.8997694570591 16.7039779478798
endloop
endfacet
facet normal -5.26494144840456e-007 -4.05462169068314e-007 0.999999999999779
outer loop
vertex 640.077618031571 46.8997694570591 16.7039779478798
vertex 640.077618031559 23.4107210618865 16.7039701635016
vertex 640.336357708873 23.115685005353 16.7039701635016
endloop
endfacet
facet normal -5.26494144840456e-007 -4.05462169068314e-007 0.999999999999779
outer loop
vertex 640.077618031571 46.8997694570591 16.7039779478798
vertex 640.336357708873 23.115685005353 16.7039701635016
vertex 640.336357708885 47.1948055135926 16.7039779478798
endloop
endfacet
facet normal -5.26494144840456e-007 -4.05462169068314e-007 0.999999999999779
outer loop
vertex 640.336357708885 47.1948055135926 16.7039779478798
vertex 640.336357708873 23.115685005353 16.7039701635016
vertex 640.631393765407 22.8569453280389 16.7039701635016
endloop
endfacet
facet normal -5.26494144840456e-007 -4.05462169068314e-007 0.999999999999779
outer loop
vertex 640.336357708885 47.1948055135926 16.7039779478798
vertex 640.631393765407 22.8569453280389 16.7039701635016
vertex 640.631393765418 47.4535451909066 16.7039779478798
endloop
endfacet
facet normal -5.26494144840456e-007 -4.05462169068314e-007 0.999999999999779
outer loop
vertex 640.631393765418 47.4535451909066 16.7039779478798
vertex 640.631393765407 22.8569453280389 16.7039701635016
vertex 640.957678052433 22.6389291375593 16.7039701635016
endloop
endfacet
facet normal -5.26494144840456e-007 -4.05462169068314e-007 0.999999999999779
outer loop
vertex 640.631393765418 47.4535451909066 16.7039779478798
vertex 640.957678052433 22.6389291375593 16.7039701635016
vertex 640.957678052445 47.6715613813862 16.7039779478798
endloop
endfacet
facet normal -5.26494144840456e-007 -4.05462169068314e-007 0.999999999999779
outer loop
vertex 640.957678052445 47.6715613813862 16.7039779478798
vertex 640.957678052433 22.6389291375593 16.7039701635016
vertex 641.309627755338 22.4653667513788 16.7039701635016
endloop
endfacet
facet normal -5.26494144840456e-007 -4.05462169068314e-007 0.999999999999779
outer loop
vertex 640.957678052445 47.6715613813862 16.7039779478798
vertex 641.309627755338 22.4653667513788 16.7039701635016
vertex 641.309627755349 47.8451237675668 16.7039779478798
endloop
endfacet
facet normal -5.26494144840456e-007 -4.05462169068314e-007 0.999999999999779
outer loop
vertex 641.309627755349 47.8451237675668 16.7039779478798
vertex 641.309627755338 22.4653667513788 16.7039701635016
vertex 641.681220917125 22.3392278700454 16.7039701635016
endloop
endfacet
facet normal -5.26494144840456e-007 -4.05462169068314e-007 0.999999999999779
outer loop
vertex 641.309627755349 47.8451237675668 16.7039779478798
vertex 641.681220917125 22.3392278700454 16.7039701635016
vertex 641.681220917137 47.9712626489001 16.7039779478798
endloop
endfacet
facet normal -5.26494144840456e-007 -4.05462169068314e-007 0.999999999999779
outer loop
vertex 641.681220917137 47.9712626489001 16.7039779478798
vertex 641.681220917125 22.3392278700454 16.7039701635016
vertex 642.066099475773 22.2626707647912 16.7039701635016
endloop
endfacet
facet normal -5.26494144840456e-007 -4.05462169068314e-007 0.999999999999779
outer loop
vertex 641.681220917137 47.9712626489001 16.7039779478798
vertex 642.066099475773 22.2626707647912 16.7039701635016
vertex 642.066099475785 48.0478197541543 16.7039779478798
endloop
endfacet
facet normal -5.26494144840456e-007 -4.05462169068314e-007 0.999999999999779
outer loop
vertex 642.066099475785 48.0478197541543 16.7039779478798
vertex 642.066099475773 22.2626707647912 16.7039701635016
vertex 642.357678052433 22.2370053489126 16.7039701635016
endloop
endfacet
facet normal -5.26494144840456e-007 -4.05462169068314e-007 0.999999999999779
outer loop
vertex 642.066099475785 48.0478197541543 16.7039779478798
vertex 642.357678052433 22.2370053489126 16.7039701635016
vertex 642.357678052444 44.7370053488768 16.7039778953357
endloop
endfacet
facet normal -5.26494144840456e-007 -4.05462169068314e-007 0.999999999999779
outer loop
vertex 642.066099475785 48.0478197541543 16.7039779478798
vertex 642.357678052444 44.7370053488768 16.7039778953357
vertex 642.457678052445 48.0734851700329 16.7039779478798
endloop
endfacet
facet normal -5.26494144840456e-007 -4.05462169068314e-007 0.999999999999779
outer loop
vertex 642.457678052445 48.0734851700329 16.7039779478798
vertex 642.357678052444 44.7370053488768 16.7039778953357
vertex 652.357678052445 44.7370053488768 16.7039778953357
endloop
endfacet
facet normal -5.26494144840456e-007 -4.05462169068314e-007 0.999999999999779
outer loop
vertex 642.457678052445 48.0734851700329 16.7039779478798
vertex 652.357678052445 44.7370053488768 16.7039778953357
vertex 655.357678052285 48.0734851700259 16.7040030824575
endloop
endfacet
facet normal -0.00456458397868444 0.00603541148471484 0.999971368780783
outer loop
vertex 642.45767204711 22.3088176713671 12.7040177485477
vertex 642.357672051483 22.2370206198469 12.7039946142568
vertex 642.45767204711 22.2370206197836 12.7044510857044
endloop
endfacet
facet normal 0.707107467275722 0.707106094834432 -1.92591072388887e-005
outer loop
vertex 653.579005270168 47.1946853653238 8.20393040795676
vertex 653.837732067983 46.8997847279955 12.7030020003368
vertex 653.837744947479 46.8996493087904 8.20393040795676
endloop
endfacet
facet normal 0.793352690746153 0.608762275299775 -1.60524287911274e-005
outer loop
vertex 653.837732067983 46.8997847279955 12.7030020003368
vertex 653.579005270168 47.1946853653238 8.20393040795676
vertex 653.578992390672 47.194820784529 12.7030020003368
endloop
endfacet
facet normal -0.0325812245072736 0.999468956409177 -0.00051863663241894
outer loop
vertex 642.457672051495 48.0735004409672 12.704002398635
vertex 651.457684926608 48.0733650217636 8.20393040795676
vertex 642.457684926606 48.0733650217636 8.20393040795676
endloop
endfacet
facet normal 0.0327191535736119 0.999464584710366 -2.99860441384649e-005
outer loop
vertex 651.457684926608 48.0733650217636 8.20393040795676
vertex 642.457672051495 48.0735004409672 12.704002398635
vertex 651.457672047112 48.0735004409687 12.7030020003368
endloop
endfacet
facet normal -0.499999766808847 0.866025538320495 -1.29535665123273e-005
outer loop
vertex 640.957678052445 47.6715613813862 16.7039779478798
vertex 641.309634629511 47.8450036192976 8.20393040795676
vertex 640.957684926608 47.6714412331175 8.20393040795676
endloop
endfacet
facet normal -0.382683607946163 0.923879459681768 -1.36906110736719e-005
outer loop
vertex 641.309634629511 47.8450036192976 8.20393040795676
vertex 640.957678052445 47.6715613813862 16.7039779478798
vertex 641.309627755349 47.8451237675668 16.7039779478798
endloop
endfacet
facet normal 1.42644728478833e-005 0.00603547436027074 0.999981786257016
outer loop
vertex 642.45767204711 22.3088176713671 12.7040177485477
vertex 642.357672051483 22.2370206198469 12.7039946142568
vertex 642.45767204711 22.2370206197836 12.7044510857044
endloop
endfacet
facet normal 0.608760748567323 0.793353862102993 -2.21363468582645e-005
outer loop
vertex 653.283956334136 47.4535604618431 12.7030020003368
vertex 653.579005270168 47.1946853653238 8.20393040795676
vertex 653.283969213632 47.453425042638 8.20393040795676
endloop
endfacet
facet normal 0.707107467275722 0.707106094834432 -1.92591072388887e-005
outer loop
vertex 653.579005270168 47.1946853653238 8.20393040795676
vertex 653.283956334136 47.4535604618431 12.7030020003368
vertex 653.578992390672 47.194820784529 12.7030020003368
endloop
endfacet
facet normal 0.923879993019018 0.382682320496287 -8.87449430253768e-006
outer loop
vertex 654.22932352414 46.2214153188596 8.20393040795676
vertex 654.355449525979 45.8499575762763 12.7030020003368
vertex 654.355462405476 45.8498221570712 8.20393040795676
endloop
endfacet
facet normal 0.96592550497972 0.258820244193554 -5.02623750198133e-006
outer loop
vertex 654.355449525979 45.8499575762763 12.7030020003368
vertex 654.22932352414 46.2214153188596 8.20393040795676
vertex 654.229310644643 46.2215507380647 12.7030020003368
endloop
endfacet
facet normal 0.999464566862978 0.0327197124358141 1.87551000996136e-006
outer loop
vertex 654.457684926606 45.0733650217643 8.20393040795676
vertex 654.457672047109 33.0734998791202 12.7044510857044
vertex 654.457684926606 33.0733644599151 8.20537949332433
endloop
endfacet
facet normal 0.999999999995903 3.36161889153146e-010 2.86251852020922e-006
outer loop
vertex 654.457672047109 33.0734998791202 12.7044510857044
vertex 654.457684926606 45.0733650217643 8.20393040795676
vertex 654.457672047109 45.0735004409694 12.7030020003368
endloop
endfacet
facet normal -0.130526145286926 0.991444867447322 -1.44533529710149e-005
outer loop
vertex 642.066099475785 48.0478197541543 16.7039779478798
vertex 642.457684926606 48.0733650217636 8.20393040795676
vertex 642.066106349946 48.0476996058857 8.20393040795676
endloop
endfacet
facet normal -0.0327190426943254 0.999464588541105 -2.23053119339372e-005
outer loop
vertex 642.457684926606 48.0733650217636 8.20393040795676
vertex 642.066099475785 48.0478197541543 16.7039779478798
vertex 642.457672051495 48.0735004409672 12.704002398635
endloop
endfacet
facet normal -0.0325812245072736 0.999468956409177 -0.00051863663241894
outer loop
vertex 642.457672051495 48.0735004409672 12.704002398635
vertex 642.066099475785 48.0478197541543 16.7039779478798
vertex 642.457678052445 48.0734851700329 16.7039779478798
endloop
endfacet
facet normal -0.793353989683312 -0.608760582491854 1.6054581066783e-005
outer loop
vertex 640.077612030609 23.4107363328208 12.7039946142568
vertex 639.859608715255 23.7368852005784 8.20537949332433
vertex 640.077624905732 23.4106009135529 8.20537949332433
endloop
endfacet
facet normal -0.866024831198618 -0.500000991588351 1.25726670998984e-005
outer loop
vertex 639.859608715255 23.7368852005784 8.20537949332433
vertex 640.077612030609 23.4107363328208 12.7039946142568
vertex 639.859595840129 23.7370206198469 12.7039946142568
endloop
endfacet
facet normal -0.707107467325066 -0.707106094785013 1.92618596533939e-005
outer loop
vertex 640.336351707923 23.1157002762873 12.7039946142568
vertex 640.077624905732 23.4106009135529 8.20537949332433
vertex 640.336364583049 23.1155648570194 8.20537949332433
endloop
endfacet
facet normal -0.793352690694799 -0.608762275366642 1.60546357441661e-005
outer loop
vertex 640.077624905732 23.4106009135529 8.20537949332433
vertex 640.336351707923 23.1157002762873 12.7039946142568
vertex 640.077612030609 23.4107363328208 12.7039946142568
endloop
endfacet
facet normal -0.707106512778385 0.707107049511658 -1.08309600918174e-005
outer loop
vertex 640.336357708885 47.1948055135926 16.7039779478798
vertex 640.63140063958 47.453425042638 8.20393040795676
vertex 640.336364583049 47.1946853653239 8.20393040795676
endloop
endfacet
facet normal -0.608761688678385 0.79335314094895 -1.19948757785774e-005
outer loop
vertex 640.63140063958 47.453425042638 8.20393040795676
vertex 640.336357708885 47.1948055135926 16.7039779478798
vertex 640.631393765418 47.4535451909066 16.7039779478798
endloop
endfacet
facet normal 0.065630723460325 0.997843453987824 -0.00102443727209227
outer loop
vertex 651.84925062377 48.0478350250908 12.7030020003368
vertex 652.234142061914 47.9711425006315 8.20393040795676
vertex 651.849263503266 48.0476996058857 8.20393040795676
endloop
endfacet
facet normal 0.258819469520971 0.96592571215087 -2.8332271750241e-005
outer loop
vertex 652.234142061914 47.9711425006315 8.20393040795676
vertex 651.84925062377 48.0478350250908 12.7030020003368
vertex 652.234129182417 47.9712779198366 12.7030020003368
endloop
endfacet
facet normal -0.500000631949378 -0.866025038577505 2.46384507047537e-005
outer loop
vertex 640.957672051483 22.6389444084936 12.7039946142568
vertex 640.63140063958 22.8568251797053 8.20537949332433
vertex 640.957684926606 22.6388089892258 8.20537949332433
endloop
endfacet
facet normal -0.608760748524541 -0.79335386213573 2.21395977474569e-005
outer loop
vertex 640.63140063958 22.8568251797053 8.20537949332433
vertex 640.957672051483 22.6389444084936 12.7039946142568
vertex 640.631387764457 22.8569605989732 12.7039946142568
endloop
endfacet
facet normal -0.382683977077182 -0.923879306497693 2.67157674913756e-005
outer loop
vertex 641.309621754388 22.4653820223131 12.7039946142568
vertex 640.957684926606 22.6388089892258 8.20537949332433
vertex 641.309634629513 22.4652466030446 8.20537949332433
endloop
endfacet
facet normal -0.499999367748156 -0.86602576846442 2.46384762942945e-005
outer loop
vertex 640.957684926606 22.6388089892258 8.20537949332433
vertex 641.309621754388 22.4653820223131 12.7039946142568
vertex 640.957672051483 22.6389444084936 12.7039946142568
endloop
endfacet
facet normal -0.38268324926943 0.923879608250533 -1.36906129175292e-005
outer loop
vertex 641.309627755349 47.8451237675668 16.7039779478798
vertex 641.681227791298 47.9711425006315 8.20393040795676
vertex 641.309634629511 47.8450036192976 8.20393040795676
endloop
endfacet
facet normal -0.258819156972792 0.965925796209233 -1.41934086637756e-005
outer loop
vertex 641.681227791298 47.9711425006315 8.20393040795676
vertex 641.309627755349 47.8451237675668 16.7039779478798
vertex 641.681220917137 47.9712626489001 16.7039779478798
endloop
endfacet
facet normal -0.258819469525571 -0.965925712149529 2.83359692704003e-005
outer loop
vertex 641.681214916175 22.3392431409797 12.7039946142568
vertex 641.309634629513 22.4652466030446 8.20537949332433
vertex 641.681227791301 22.3391077217118 8.20537949332433
endloop
endfacet
facet normal -0.382682887380175 -0.923879757864972 2.67157841973628e-005
outer loop
vertex 641.309634629513 22.4652466030446 8.20537949332433
vertex 641.681214916175 22.3392431409797 12.7039946142568
vertex 641.309621754388 22.4653820223131 12.7039946142568
endloop
endfacet
facet normal -0.60876210919775 -0.793352818054456 2.21395624237932e-005
outer loop
vertex 640.631387764457 22.8569605989732 12.7039946142568
vertex 640.336364583049 23.1155648570194 8.20537949332433
vertex 640.63140063958 22.8568251797053 8.20537949332433
endloop
endfacet
facet normal -0.70710609478654 -0.707107467323538 1.92619048983773e-005
outer loop
vertex 640.336364583049 23.1155648570194 8.20537949332433
vertex 640.631387764457 22.8569605989732 12.7039946142568
vertex 640.336351707923 23.1157002762873 12.7039946142568
endloop
endfacet
facet normal 0.999999999999353 -9.35002794013092e-008 1.13373097367863e-006
outer loop
vertex 655.357687141134 33.0734321695059 8.20537949332433
vertex 655.357678052433 22.2370053489078 16.7039701635016
vertex 655.357687141134 22.2368852005791 8.20537949332433
endloop
endfacet
facet normal 0.999999999999353 -9.35002794013092e-008 1.13373097367863e-006
outer loop
vertex 655.357678052433 22.2370053489078 16.7039701635016
vertex 655.357687141134 33.0734321695059 8.20537949332433
vertex 655.357687141134 33.0734998790968 12.7038963685496
endloop
endfacet
facet normal 0.999999999999353 -9.35002794013092e-008 1.13373097367863e-006
outer loop
vertex 655.357678052433 22.2370053489078 16.7039701635016
vertex 655.357687141134 33.0734998790968 12.7038963685496
vertex 655.357678052285 48.0734851700259 16.7040030824575
endloop
endfacet
facet normal 0.999999999999353 -9.35002794013092e-008 1.13373097367863e-006
outer loop
vertex 655.357678052285 48.0734851700259 16.7040030824575
vertex 655.357687141134 33.0734998790968 12.7038963685496
vertex 655.357687131405 48.0620532890431 12.7033579133212
endloop
endfacet
facet normal 0.999999999995907 -1.12798659283655e-014 2.86113829528577e-006
outer loop
vertex 644.257684926606 43.2266852001658 8.20534970265955
vertex 644.257672047109 26.2370206197842 12.7044510857044
vertex 644.257684926606 26.2368852005791 8.20537949332433
endloop
endfacet
facet normal 0.999999999995907 -1.12798659283655e-014 2.86113829528577e-006
outer loop
vertex 644.257672047109 26.2370206197842 12.7044510857044
vertex 644.257684926606 43.2266852001658 8.20534970265955
vertex 644.25767204711 43.226820619371 12.7044212950396
endloop
endfacet
facet normal -7.27733302064051e-015 -0.999999999547065 3.00976609284444e-005
outer loop
vertex 650.45767204711 43.2268206193709 12.7044212950396
vertex 644.257684926606 43.2266852001658 8.20534970265955
vertex 650.457684926606 43.2266852001658 8.20534970265955
endloop
endfacet
facet normal -7.27733302064051e-015 -0.999999999547065 3.00976609284444e-005
outer loop
vertex 644.257684926606 43.2266852001658 8.20534970265955
vertex 650.45767204711 43.2268206193709 12.7044212950396
vertex 644.25767204711 43.226820619371 12.7044212950396
endloop
endfacet
facet normal 3.45388382140799e-006 -6.13598419729227e-005 -0.99999999811152
outer loop
vertex 639.483350342487 45.4649435984245 8.20393040795676
vertex 639.457684926609 25.2368852005791 8.20537949332433
vertex 639.457684926606 45.0733650217643 8.20393040795676
endloop
endfacet
facet normal 3.45388382140799e-006 -6.13598419729227e-005 -0.99999999811152
outer loop
vertex 639.457684926609 25.2368852005791 8.20537949332433
vertex 639.483350342487 45.4649435984245 8.20393040795676
vertex 639.483350342487 24.8453066239189 8.20537949332433
endloop
endfacet
facet normal 3.45388382140799e-006 -6.13598419729227e-005 -0.99999999811152
outer loop
vertex 639.483350342487 24.8453066239189 8.20537949332433
vertex 639.483350342487 45.4649435984245 8.20393040795676
vertex 639.559907447739 24.4604280652709 8.20537949332433
endloop
endfacet
facet normal 3.45388382140799e-006 -6.13598419729227e-005 -0.99999999811152
outer loop
vertex 639.559907447739 24.4604280652709 8.20537949332433
vertex 639.483350342487 45.4649435984245 8.20393040795676
vertex 639.559907447741 45.8498221570712 8.20393040795676
endloop
endfacet
facet normal 3.45388382140799e-006 -6.13598419729227e-005 -0.99999999811152
outer loop
vertex 639.559907447739 24.4604280652709 8.20537949332433
vertex 639.559907447741 45.8498221570712 8.20393040795676
vertex 639.686046329074 24.0888349034838 8.20537949332433
endloop
endfacet
facet normal 3.45388382140799e-006 -6.13598419729227e-005 -0.99999999811152
outer loop
vertex 639.686046329074 24.0888349034838 8.20537949332433
vertex 639.559907447741 45.8498221570712 8.20393040795676
vertex 639.686046329072 46.2214153188596 8.20393040795676
endloop
endfacet
facet normal 3.45388382140799e-006 -6.13598419729227e-005 -0.99999999811152
outer loop
vertex 639.686046329074 24.0888349034838 8.20537949332433
vertex 639.686046329072 46.2214153188596 8.20393040795676
vertex 639.859608715255 46.5733650217636 8.20393040795676
endloop
endfacet
facet normal 3.45388382140799e-006 -6.13598419729227e-005 -0.99999999811152
outer loop
vertex 639.686046329074 24.0888349034838 8.20537949332433
vertex 639.859608715255 46.5733650217636 8.20393040795676
vertex 639.859608715255 23.7368852005784 8.20537949332433
endloop
endfacet
facet normal 3.45388382140799e-006 -6.13598419729227e-005 -0.99999999811152
outer loop
vertex 639.859608715255 23.7368852005784 8.20537949332433
vertex 639.859608715255 46.5733650217636 8.20393040795676
vertex 640.077624905732 46.8996493087904 8.20393040795676
endloop
endfacet
facet normal 3.45388382140799e-006 -6.13598419729227e-005 -0.99999999811152
outer loop
vertex 639.859608715255 23.7368852005784 8.20537949332433
vertex 640.077624905732 46.8996493087904 8.20393040795676
vertex 640.077624905732 23.4106009135529 8.20537949332433
endloop
endfacet
facet normal 3.45388382140799e-006 -6.13598419729227e-005 -0.99999999811152
outer loop
vertex 640.077624905732 23.4106009135529 8.20537949332433
vertex 640.077624905732 46.8996493087904 8.20393040795676
vertex 640.336364583049 47.1946853653239 8.20393040795676
endloop
endfacet
facet normal 3.45388382140799e-006 -6.13598419729227e-005 -0.99999999811152
outer loop
vertex 640.077624905732 23.4106009135529 8.20537949332433
vertex 640.336364583049 47.1946853653239 8.20393040795676
vertex 640.336364583049 23.1155648570194 8.20537949332433
endloop
endfacet
facet normal 3.45388382140799e-006 -6.13598419729227e-005 -0.99999999811152
outer loop
vertex 640.336364583049 23.1155648570194 8.20537949332433
vertex 640.336364583049 47.1946853653239 8.20393040795676
vertex 640.63140063958 47.453425042638 8.20393040795676
endloop
endfacet
facet normal 3.45388382140799e-006 -6.13598419729227e-005 -0.99999999811152
outer loop
vertex 640.336364583049 23.1155648570194 8.20537949332433
vertex 640.63140063958 47.453425042638 8.20393040795676
vertex 640.63140063958 22.8568251797053 8.20537949332433
endloop
endfacet
facet normal 3.45388382140799e-006 -6.13598419729227e-005 -0.99999999811152
outer loop
vertex 640.63140063958 22.8568251797053 8.20537949332433
vertex 640.63140063958 47.453425042638 8.20393040795676
vertex 640.957684926608 47.6714412331175 8.20393040795676
endloop
endfacet
facet normal 3.45388382140799e-006 -6.13598419729227e-005 -0.99999999811152
outer loop
vertex 640.63140063958 22.8568251797053 8.20537949332433
vertex 640.957684926608 47.6714412331175 8.20393040795676
vertex 640.957684926606 22.6388089892258 8.20537949332433
endloop
endfacet
facet normal 3.45388382140799e-006 -6.13598419729227e-005 -0.99999999811152
outer loop
vertex 640.957684926606 22.6388089892258 8.20537949332433
vertex 640.957684926608 47.6714412331175 8.20393040795676
vertex 641.309634629513 22.4652466030446 8.20537949332433
endloop
endfacet
facet normal 3.45388382140799e-006 -6.13598419729227e-005 -0.99999999811152
outer loop
vertex 641.309634629513 22.4652466030446 8.20537949332433
vertex 640.957684926608 47.6714412331175 8.20393040795676
vertex 641.309634629511 47.8450036192976 8.20393040795676
endloop
endfacet
facet normal 3.45388382140799e-006 -6.13598419729227e-005 -0.99999999811152
outer loop
vertex 641.309634629513 22.4652466030446 8.20537949332433
vertex 641.309634629511 47.8450036192976 8.20393040795676
vertex 641.681227791298 47.9711425006315 8.20393040795676
endloop
endfacet
facet normal 3.45388382140799e-006 -6.13598419729227e-005 -0.99999999811152
outer loop
vertex 641.309634629513 22.4652466030446 8.20537949332433
vertex 641.681227791298 47.9711425006315 8.20393040795676
vertex 641.681227791301 22.3391077217118 8.20537949332433
endloop
endfacet
facet normal 3.45388382140799e-006 -6.13598419729227e-005 -0.99999999811152
outer loop
vertex 641.681227791301 22.3391077217118 8.20537949332433
vertex 641.681227791298 47.9711425006315 8.20393040795676
vertex 642.066106349946 48.0476996058857 8.20393040795676
endloop
endfacet
facet normal 3.45388382140799e-006 -6.13598419729227e-005 -0.99999999811152
outer loop
vertex 641.681227791301 22.3391077217118 8.20537949332433
vertex 642.066106349946 48.0476996058857 8.20393040795676
vertex 642.066106349946 22.2625506164577 8.20537949332433
endloop
endfacet
facet normal 3.45388382140799e-006 -6.13598419729227e-005 -0.99999999811152
outer loop
vertex 642.066106349946 22.2625506164577 8.20537949332433
vertex 642.066106349946 48.0476996058857 8.20393040795676
vertex 642.457684926606 48.0733650217636 8.20393040795676
endloop
endfacet
facet normal 3.45388382140799e-006 -6.13598419729227e-005 -0.99999999811152
outer loop
vertex 642.066106349946 22.2625506164577 8.20537949332433
vertex 642.457684926606 48.0733650217636 8.20393040795676
vertex 642.457684926606 22.2368852005785 8.20537949332433
endloop
endfacet
facet normal 3.45388382140799e-006 -6.13598419729227e-005 -0.99999999811152
outer loop
vertex 642.457684926606 22.2368852005785 8.20537949332433
vertex 642.457684926606 48.0733650217636 8.20393040795676
vertex 644.257684926606 43.2266852001658 8.20534970265955
endloop
endfacet
facet normal 3.45388382140799e-006 -6.13598419729227e-005 -0.99999999811152
outer loop
vertex 644.257684926606 43.2266852001658 8.20534970265955
vertex 642.457684926606 48.0733650217636 8.20393040795676
vertex 651.457684926608 48.0733650217636 8.20393040795676
endloop
endfacet
facet normal 3.45388382140799e-006 -6.13598419729227e-005 -0.99999999811152
outer loop
vertex 642.457684926606 22.2368852005785 8.20537949332433
vertex 644.257684926606 43.2266852001658 8.20534970265955
vertex 644.257684926606 26.2368852005791 8.20537949332433
endloop
endfacet
facet normal 3.45388382140799e-006 -6.13598419729227e-005 -0.99999999811152
outer loop
vertex 644.257684926606 43.2266852001658 8.20534970265955
vertex 651.457684926608 48.0733650217636 8.20393040795676
vertex 650.457684926606 43.2266852001658 8.20534970265955
endloop
endfacet
facet normal 3.45388382140799e-006 -6.13598419729227e-005 -0.99999999811152
outer loop
vertex 650.457684926606 43.2266852001658 8.20534970265955
vertex 651.457684926608 48.0733650217636 8.20393040795676
vertex 650.457684926606 22.2368852005791 8.20537949332433
endloop
endfacet
facet normal 3.45388382140799e-006 -6.13598419729227e-005 -0.99999999811152
outer loop
vertex 650.457684926606 22.2368852005791 8.20537949332433
vertex 651.457684926608 48.0733650217636 8.20393040795676
vertex 655.308384926606 22.2368852005791 8.20537949332433
endloop
endfacet
facet normal 3.45388382140799e-006 -6.13598419729227e-005 -0.99999999811152
outer loop
vertex 655.308384926606 22.2368852005791 8.20537949332433
vertex 651.457684926608 48.0733650217636 8.20393040795676
vertex 651.849263503266 48.0476996058857 8.20393040795676
endloop
endfacet
facet normal 3.45388382140799e-006 -6.13598419729227e-005 -0.99999999811152
outer loop
vertex 655.308384926606 22.2368852005791 8.20537949332433
vertex 651.849263503266 48.0476996058857 8.20393040795676
vertex 652.234142061914 47.9711425006315 8.20393040795676
endloop
endfacet
facet normal 3.45388382140799e-006 -6.13598419729227e-005 -0.99999999811152
outer loop
vertex 655.308384926606 22.2368852005791 8.20537949332433
vertex 652.234142061914 47.9711425006315 8.20393040795676
vertex 652.605735223701 47.8450036192976 8.20393040795676
endloop
endfacet
facet normal 3.45388382140799e-006 -6.13598419729227e-005 -0.99999999811152
outer loop
vertex 655.308384926606 22.2368852005791 8.20537949332433
vertex 652.605735223701 47.8450036192976 8.20393040795676
vertex 652.957684926608 47.6714412331176 8.20393040795676
endloop
endfacet
facet normal 3.45388382140799e-006 -6.13598419729227e-005 -0.99999999811152
outer loop
vertex 655.308384926606 22.2368852005791 8.20537949332433
vertex 652.957684926608 47.6714412331176 8.20393040795676
vertex 653.283969213632 47.453425042638 8.20393040795676
endloop
endfacet
facet normal 3.45388382140799e-006 -6.13598419729227e-005 -0.99999999811152
outer loop
vertex 655.308384926606 22.2368852005791 8.20537949332433
vertex 653.283969213632 47.453425042638 8.20393040795676
vertex 654.457684926606 33.0733644599151 8.20537949332433
endloop
endfacet
facet normal 3.45388382140799e-006 -6.13598419729227e-005 -0.99999999811152
outer loop
vertex 654.457684926606 33.0733644599151 8.20537949332433
vertex 653.283969213632 47.453425042638 8.20393040795676
vertex 653.579005270168 47.1946853653238 8.20393040795676
endloop
endfacet
facet normal 3.45388382140799e-006 -6.13598419729227e-005 -0.99999999811152
outer loop
vertex 654.457684926606 33.0733644599151 8.20537949332433
vertex 653.579005270168 47.1946853653238 8.20393040795676
vertex 653.837744947479 46.8996493087904 8.20393040795676
endloop
endfacet
facet normal 3.45388382140799e-006 -6.13598419729227e-005 -0.99999999811152
outer loop
vertex 654.457684926606 33.0733644599151 8.20537949332433
vertex 653.837744947479 46.8996493087904 8.20393040795676
vertex 654.055761137962 46.5733650217637 8.20393040795676
endloop
endfacet
facet normal 3.45388382140799e-006 -6.13598419729227e-005 -0.99999999811152
outer loop
vertex 654.457684926606 33.0733644599151 8.20537949332433
vertex 654.055761137962 46.5733650217637 8.20393040795676
vertex 654.22932352414 46.2214153188596 8.20393040795676
endloop
endfacet
facet normal 3.45388382140799e-006 -6.13598419729227e-005 -0.99999999811152
outer loop
vertex 654.457684926606 33.0733644599151 8.20537949332433
vertex 654.22932352414 46.2214153188596 8.20393040795676
vertex 654.355462405476 45.8498221570712 8.20393040795676
endloop
endfacet
facet normal 3.45388382140799e-006 -6.13598419729227e-005 -0.99999999811152
outer loop
vertex 654.457684926606 33.0733644599151 8.20537949332433
vertex 654.355462405476 45.8498221570712 8.20393040795676
vertex 654.43201951073 45.4649435984245 8.20393040795676
endloop
endfacet
facet normal 3.45388382140799e-006 -6.13598419729227e-005 -0.99999999811152
outer loop
vertex 654.457684926606 33.0733644599151 8.20537949332433
vertex 654.43201951073 45.4649435984245 8.20393040795676
vertex 654.457684926606 45.0733650217643 8.20393040795676
endloop
endfacet
facet normal 3.45388382140799e-006 -6.13598419729227e-005 -0.99999999811152
outer loop
vertex 655.308384926606 22.2368852005791 8.20537949332433
vertex 654.457684926606 33.0733644599151 8.20537949332433
vertex 655.357687141134 33.0734321695059 8.20537949332433
endloop
endfacet
facet normal 3.45388382140799e-006 -6.13598419729227e-005 -0.99999999811152
outer loop
vertex 655.308384926606 22.2368852005791 8.20537949332433
vertex 655.357687141134 33.0734321695059 8.20537949332433
vertex 655.357687141134 22.2368852005791 8.20537949332433
endloop
endfacet
facet normal 3.45388382140799e-006 -6.13598419729227e-005 -0.99999999811152
outer loop
vertex 644.257684926606 26.2368852005791 8.20537949332433
vertex 650.457684926606 22.2368852005791 8.20537949332433
vertex 642.457684926606 22.2368852005785 8.20537949332433
endloop
endfacet
facet normal 3.45388382140799e-006 -6.13598419729227e-005 -0.99999999811152
outer loop
vertex 650.457684926606 22.2368852005791 8.20537949332433
vertex 644.257684926606 26.2368852005791 8.20537949332433
vertex 650.457684926606 26.2368852005791 8.20537949332433
endloop
endfacet
facet normal 3.45388382140799e-006 -6.13598419729227e-005 -0.99999999811152
outer loop
vertex 650.457684926606 22.2368852005791 8.20537949332433
vertex 650.457684926606 26.2368852005791 8.20537949332433
vertex 650.457684926606 43.2266852001658 8.20534970265955
endloop
endfacet
facet normal -6.36076781448385e-006 -7.89955501563586e-005 -0.999999996859622
outer loop
vertex 655.357687131405 48.0620532890431 12.7033579133212
vertex 652.234129182417 47.9712779198366 12.7030020003368
vertex 651.84925062377 48.0478350250908 12.7030020003368
endloop
endfacet
facet normal -6.36076781448385e-006 -7.89955501563586e-005 -0.999999996859622
outer loop
vertex 652.234129182417 47.9712779198366 12.7030020003368
vertex 655.357687131405 48.0620532890431 12.7033579133212
vertex 652.605722344205 47.8451390385027 12.7030020003368
endloop
endfacet
facet normal -6.36076781448385e-006 -7.89955501563586e-005 -0.999999996859622
outer loop
vertex 652.605722344205 47.8451390385027 12.7030020003368
vertex 655.357687131405 48.0620532890431 12.7033579133212
vertex 652.957672047112 47.6715766523227 12.7030020003368
endloop
endfacet
facet normal -6.36076781448385e-006 -7.89955501563586e-005 -0.999999996859622
outer loop
vertex 652.957672047112 47.6715766523227 12.7030020003368
vertex 655.357687131405 48.0620532890431 12.7033579133212
vertex 653.283956334136 47.4535604618431 12.7030020003368
endloop
endfacet
facet normal -6.36076781448385e-006 -7.89955501563586e-005 -0.999999996859622
outer loop
vertex 653.283956334136 47.4535604618431 12.7030020003368
vertex 655.357687131405 48.0620532890431 12.7033579133212
vertex 653.578992390672 47.194820784529 12.7030020003368
endloop
endfacet
facet normal -6.36076781448385e-006 -7.89955501563586e-005 -0.999999996859622
outer loop
vertex 653.578992390672 47.194820784529 12.7030020003368
vertex 655.357687131405 48.0620532890431 12.7033579133212
vertex 653.837732067983 46.8997847279955 12.7030020003368
endloop
endfacet
facet normal -6.36076781448385e-006 -7.89955501563586e-005 -0.999999996859622
outer loop
vertex 653.837732067983 46.8997847279955 12.7030020003368
vertex 655.357687131405 48.0620532890431 12.7033579133212
vertex 654.055748258465 46.5735004409688 12.7030020003368
endloop
endfacet
facet normal -6.36076781448385e-006 -7.89955501563586e-005 -0.999999996859622
outer loop
vertex 654.055748258465 46.5735004409688 12.7030020003368
vertex 655.357687131405 48.0620532890431 12.7033579133212
vertex 654.229310644643 46.2215507380647 12.7030020003368
endloop
endfacet
facet normal -6.36076781448385e-006 -7.89955501563586e-005 -0.999999996859622
outer loop
vertex 654.229310644643 46.2215507380647 12.7030020003368
vertex 655.357687131405 48.0620532890431 12.7033579133212
vertex 654.355449525979 45.8499575762763 12.7030020003368
endloop
endfacet
facet normal -6.36076781448385e-006 -7.89955501563586e-005 -0.999999996859622
outer loop
vertex 654.355449525979 45.8499575762763 12.7030020003368
vertex 655.357687131405 48.0620532890431 12.7033579133212
vertex 654.432006631233 45.4650790176296 12.7030020003368
endloop
endfacet
facet normal -6.36076781448385e-006 -7.89955501563586e-005 -0.999999996859622
outer loop
vertex 654.432006631233 45.4650790176296 12.7030020003368
vertex 655.357687131405 48.0620532890431 12.7033579133212
vertex 654.457672047109 45.0735004409694 12.7030020003368
endloop
endfacet
facet normal -6.36076781448385e-006 -7.89955501563586e-005 -0.999999996859622
outer loop
vertex 654.457672047109 45.0735004409694 12.7030020003368
vertex 655.357687131405 48.0620532890431 12.7033579133212
vertex 654.457672047109 33.0734998791202 12.7044510857044
endloop
endfacet
facet normal -6.36076781448385e-006 -7.89955501563586e-005 -0.999999996859622
outer loop
vertex 654.457672047109 33.0734998791202 12.7044510857044
vertex 655.357687131405 48.0620532890431 12.7033579133212
vertex 655.357687141134 33.0734998790968 12.7038963685496
endloop
endfacet
facet normal -3.7622753001434e-005 0.999999999037417 -2.25764330874765e-005
outer loop
vertex 654.457672047109 33.0734998791202 12.7044510857044
vertex 655.357687141134 33.0734321695059 8.20537949332433
vertex 654.457684926606 33.0733644599151 8.20537949332433
endloop
endfacet
facet normal -3.7622753001434e-005 0.999999999037417 -2.25764330874765e-005
outer loop
vertex 655.357687141134 33.0734321695059 8.20537949332433
vertex 654.457672047109 33.0734998791202 12.7044510857044
vertex 655.357687141134 33.0734998790968 12.7038963685496
endloop
endfacet
facet normal 7.27733233478051e-015 0.999999999547014 -3.00993665634596e-005
outer loop
vertex 644.257672047109 26.2370206197842 12.7044510857044
vertex 650.457684926606 26.2368852005791 8.20537949332433
vertex 644.257684926606 26.2368852005791 8.20537949332433
endloop
endfacet
facet normal 7.27733233478051e-015 0.999999999547014 -3.00993665634596e-005
outer loop
vertex 650.457684926606 26.2368852005791 8.20537949332433
vertex 644.257672047109 26.2370206197842 12.7044510857044
vertex 650.457672047109 26.2370206197842 12.7044510857044
endloop
endfacet
facet normal 0.999999999998875 1.75834406362128e-016 -1.50024667987254e-006
outer loop
vertex 642.357672051483 22.2370206198469 12.7039946142568
vertex 642.357678052444 44.7370053488768 16.7039778953357
vertex 642.357678052433 22.2370053489126 16.7039701635016
endloop
endfacet
facet normal 0.999999999998875 1.75834406362128e-016 -1.50024667987254e-006
outer loop
vertex 642.357678052444 44.7370053488768 16.7039778953357
vertex 642.357672051483 22.2370206198469 12.7039946142568
vertex 642.357672051494 44.7370206198111 12.7040023460909
endloop
endfacet
facet normal -0.923879335544304 0.382683907832879 -6.32239268209116e-006
outer loop
vertex 639.686039454911 46.2215354671282 16.7039779478798
vertex 639.859608715255 46.5733650217636 8.20393040795676
vertex 639.686046329072 46.2214153188596 8.20393040795676
endloop
endfacet
facet normal -0.866025660727493 0.499999554897787 -7.97023013416687e-006
outer loop
vertex 639.859608715255 46.5733650217636 8.20393040795676
vertex 639.686039454911 46.2215354671282 16.7039779478798
vertex 639.859601841091 46.5734851700329 16.7039779478798
endloop
endfacet
facet normal -0.999464577826222 0.0327193775750422 -1.32416050254418e-006
outer loop
vertex 639.457678052445 45.0734851700329 16.7039779478798
vertex 639.483350342487 45.4649435984245 8.20393040795676
vertex 639.457684926606 45.0733650217643 8.20393040795676
endloop
endfacet
facet normal -0.991444937970853 0.130525610377835 -2.73218975122857e-006
outer loop
vertex 639.483350342487 45.4649435984245 8.20393040795676
vertex 639.457678052445 45.0734851700329 16.7039779478798
vertex 639.483343468323 45.4650637466931 16.7039779478798
endloop
endfacet
facet normal -0.965925684461318 0.258819574370029 -4.56636542916703e-006
outer loop
vertex 639.559900573578 45.8499423053405 16.7039779478798
vertex 639.686046329072 46.2214153188596 8.20393040795676
vertex 639.559907447741 45.8498221570712 8.20393040795676
endloop
endfacet
facet normal -0.923879741841291 0.382682926945138 -6.3223788384494e-006
outer loop
vertex 639.686046329072 46.2214153188596 8.20393040795676
vertex 639.559900573578 45.8499423053405 16.7039779478798
vertex 639.686039454911 46.2215354671282 16.7039779478798
endloop
endfacet
facet normal -0.0325812245072736 0.999468956409177 -0.00051863663241894
outer loop
vertex 642.457672051495 48.0735004409672 12.704002398635
vertex 651.57595513015 48.0657477218848 12.7035226359861
vertex 651.457672047112 48.0735004409687 12.7030020003368
endloop
endfacet
facet normal 0.0329298316570346 0.999457140887557 -0.00102455644501728
outer loop
vertex 651.57595513015 48.0657477218848 12.7035226359861
vertex 655.357687131405 48.0620532890431 12.7033579133212
vertex 651.84925062377 48.0478350250908 12.7030020003368
endloop
endfacet
facet normal 0.0005518926145288 0.999997819183821 -0.00201421005462313
outer loop
vertex 655.357687131405 48.0620532890431 12.7033579133212
vertex 651.57595513015 48.0657477218848 12.7035226359861
vertex 655.357678052285 48.0734851700259 16.7040030824575
endloop
endfacet
facet normal 0.0005518926145288 0.999997819183821 -0.00201421005462313
outer loop
vertex 655.357678052285 48.0734851700259 16.7040030824575
vertex 651.57595513015 48.0657477218848 12.7035226359861
vertex 642.457672051495 48.0735004409672 12.704002398635
endloop
endfacet
facet normal 0.0005518926145288 0.999997819183821 -0.00201421005462313
outer loop
vertex 655.357678052285 48.0734851700259 16.7040030824575
vertex 642.457672051495 48.0735004409672 12.704002398635
vertex 642.457678052445 48.0734851700329 16.7039779478798
endloop
endfacet
facet normal -0.0339775562651458 -0.999422574259378 -0.000209119601379695
outer loop
vertex 642.45767204711 22.2370206197836 12.7044510857044
vertex 642.066106349946 22.2625506164577 8.20537949332433
vertex 642.457684926606 22.2368852005785 8.20537949332433
endloop
endfacet
facet normal -0.131821184689058 -0.991273490852958 -0.000203959218758848
outer loop
vertex 642.066106349946 22.2625506164577 8.20537949332433
vertex 642.45767204711 22.2370206197836 12.7044510857044
vertex 642.357672051483 22.2370206198469 12.7039946142568
endloop
endfacet
facet normal -0.136711566901496 -0.990610890670247 -0.000103734462085151
outer loop
vertex 642.066093474823 22.2626860357255 12.7039946142568
vertex 642.066106349946 22.2625506164577 8.20537949332433
vertex 642.357672051483 22.2370206198469 12.7039946142568
endloop
endfacet
facet normal 0.0166783301065051 0.999860385589666 -0.00102109418923896
outer loop
vertex 651.457672047112 48.0735004409687 12.7030020003368
vertex 651.849263503266 48.0476996058857 8.20393040795676
vertex 651.457684926608 48.0733650217636 8.20393040795676
endloop
endfacet
facet normal 0.130526463111815 0.991444825272317 -2.94663325655251e-005
outer loop
vertex 651.849263503266 48.0476996058857 8.20393040795676
vertex 651.457672047112 48.0735004409687 12.7030020003368
vertex 651.84925062377 48.0478350250908 12.7030020003368
endloop
endfacet
facet normal 0.065630723460325 0.997843453987824 -0.00102443727209227
outer loop
vertex 651.84925062377 48.0478350250908 12.7030020003368
vertex 651.457672047112 48.0735004409687 12.7030020003368
vertex 651.57595513015 48.0657477218848 12.7035226359861
endloop
endfacet
facet normal -0.0876832700660747 -0.996148404675247 -3.67150592147899e-006
outer loop
vertex 642.357678052433 22.2370053489126 16.7039701635016
vertex 642.066093474823 22.2626860357255 12.7039946142568
vertex 642.357672051483 22.2370206198469 12.7039946142568
endloop
endfacet
facet normal -0.136711566901496 -0.990610890670247 -0.000103734462085151
outer loop
vertex 642.066093474823 22.2626860357255 12.7039946142568
vertex 642.357678052433 22.2370053489126 16.7039701635016
vertex 642.066099475773 22.2626707647912 16.7039701635016
endloop
endfacet
facet normal -4.51194635469043e-015 -0.999999999992528 -3.86591705613605e-006
outer loop
vertex 652.357678052445 44.7370053488768 16.7039778953357
vertex 642.357672051494 44.7370206198111 12.7040023460909
vertex 652.357672051494 44.7370206198111 12.7040023460909
endloop
endfacet
facet normal -4.51194635469043e-015 -0.999999999992528 -3.86591705613605e-006
outer loop
vertex 642.357672051494 44.7370206198111 12.7040023460909
vertex 652.357678052445 44.7370053488768 16.7039778953357
vertex 642.357678052444 44.7370053488768 16.7039778953357
endloop
endfacet
facet normal -0.999999999998874 -2.33833726421917e-016 1.50041546050927e-006
outer loop
vertex 652.357678052445 44.7370053488768 16.7039778953357
vertex 652.357672051483 22.2370206198421 12.7039946142568
vertex 652.357678052433 22.2370053489078 16.7039701635016
endloop
endfacet
facet normal -0.999999999998874 -2.33833726421917e-016 1.50041546050927e-006
outer loop
vertex 652.357672051483 22.2370206198421 12.7039946142568
vertex 652.357678052445 44.7370053488768 16.7039778953357
vertex 652.357672051494 44.7370206198111 12.7040023460909
endloop
endfacet
facet normal -0.866025167874632 0.500000408544024 -7.97024206344944e-006
outer loop
vertex 639.859601841091 46.5734851700329 16.7039779478798
vertex 640.077624905732 46.8996493087904 8.20393040795676
vertex 639.859608715255 46.5733650217636 8.20393040795676
endloop
endfacet
facet normal -0.79335362833058 0.608761053554514 -9.48170858844945e-006
outer loop
vertex 640.077624905732 46.8996493087904 8.20393040795676
vertex 639.859601841091 46.5734851700329 16.7039779478798
vertex 640.077618031571 46.8997694570591 16.7039779478798
endloop
endfacet
facet normal -0.923879467162677 -0.382683590130545 -7.49458177131197e-008
outer loop
vertex 639.686039454899 24.0889550518174 16.7039701635016
vertex 639.859595840129 23.7370206198469 12.7039946142568
vertex 639.859601841079 23.7370053489126 16.7039701635016
endloop
endfacet
facet normal -0.866025488232181 -0.49999985373182 -6.09626033649161e-007
outer loop
vertex 639.859595840129 23.7370206198469 12.7039946142568
vertex 639.686039454899 24.0889550518174 16.7039701635016
vertex 639.686033453949 24.0889703227516 12.7039946142568
endloop
endfacet
facet normal -0.999464577826222 0.0327193775750422 -1.32416050254418e-006
outer loop
vertex 639.457678052445 45.0734851700329 16.7039779478798
vertex 639.457672051483 25.2370206198469 12.7039946142568
vertex 639.457678052433 25.2370053489126 16.7039701635016
endloop
endfacet
facet normal -0.999464599077088 -0.0327187284527325 -3.35773344173696e-007
outer loop
vertex 639.457672051483 25.2370206198469 12.7039946142568
vertex 639.457678052445 45.0734851700329 16.7039779478798
vertex 639.457684926606 45.0733650217643 8.20393040795676
endloop
endfacet
facet normal -0.999464572273378 0.0327195471949251 -1.32416295149435e-006
outer loop
vertex 639.457684926606 45.0733650217643 8.20393040795676
vertex 639.457684926609 25.2368852005791 8.20537949332433
vertex 639.457672051483 25.2370206198469 12.7039946142568
endloop
endfacet
facet normal -0.999464584975825 -0.0327191592047149 1.98126042974943e-007
outer loop
vertex 639.457678052433 25.2370053489126 16.7039701635016
vertex 639.483337467361 24.8454420431867 12.7039946142568
vertex 639.483343468311 24.8454267722524 16.7039701635016
endloop
endfacet
facet normal -0.99144488300846 -0.130526027884724 9.89095248996647e-007
outer loop
vertex 639.483337467361 24.8454420431867 12.7039946142568
vertex 639.457678052433 25.2370053489126 16.7039701635016
vertex 639.457672051483 25.2370206198469 12.7039946142568
endloop
endfacet
facet normal -0.793353084803684 0.608761761892595 -9.48171837256641e-006
outer loop
vertex 640.077618031571 46.8997694570591 16.7039779478798
vertex 640.336364583049 47.1946853653239 8.20393040795676
vertex 640.077624905732 46.8996493087904 8.20393040795676
endloop
endfacet
facet normal -0.707107067644294 0.707106494645734 -1.08309525374807e-005
outer loop
vertex 640.336364583049 47.1946853653239 8.20393040795676
vertex 640.077618031571 46.8997694570591 16.7039779478798
vertex 640.336357708885 47.1948055135926 16.7039779478798
endloop
endfacet
facet normal -0.991444786793284 0.130526758685544 -2.73220623394851e-006
outer loop
vertex 639.483343468323 45.4650637466931 16.7039779478798
vertex 639.559907447741 45.8498221570712 8.20393040795676
vertex 639.483350342487 45.4649435984245 8.20393040795676
endloop
endfacet
facet normal -0.965925974219225 0.258818492978747 -4.56635003243434e-006
outer loop
vertex 639.559907447741 45.8498221570712 8.20393040795676
vertex 639.483343468323 45.4650637466931 16.7039779478798
vertex 639.559900573578 45.8499423053405 16.7039779478798
endloop
endfacet
facet normal -0.608761312919326 -0.793353429366926 -2.11553839924399e-006
outer loop
vertex 640.631393765407 22.8569453280389 16.7039701635016
vertex 640.336351707923 23.1157002762873 12.7039946142568
vertex 640.631387764457 22.8569605989732 12.7039946142568
endloop
endfacet
facet normal -0.707106891898313 -0.707106670472866 -1.63872661108378e-006
outer loop
vertex 640.336351707923 23.1157002762873 12.7039946142568
vertex 640.631393765407 22.8569453280389 16.7039701635016
vertex 640.336357708873 23.115685005353 16.7039701635016
endloop
endfacet
facet normal -0.499999884317533 -0.86602547056996 -2.55615155894051e-006
outer loop
vertex 640.957678052433 22.6389291375593 16.7039701635016
vertex 640.631387764457 22.8569605989732 12.7039946142568
vertex 640.957672051483 22.6389444084936 12.7039946142568
endloop
endfacet
facet normal -0.608761545095527 -0.793353251211861 -2.11553737076968e-006
outer loop
vertex 640.631387764457 22.8569605989732 12.7039946142568
vertex 640.957678052433 22.6389291375593 16.7039701635016
vertex 640.631393765407 22.8569453280389 16.7039701635016
endloop
endfacet
facet normal -0.000379106788065693 0.00143241885880234 0.999998902226526
outer loop
vertex 642.919548242606 22.237020619787 12.7044444971639
vertex 642.45767204711 22.3088176713671 12.7040177485477
vertex 642.45767204711 22.2370206197836 12.7044510857044
endloop
endfacet
facet normal -0.000379106788065693 0.00143241885880234 0.999998902226526
outer loop
vertex 642.45767204711 22.3088176713671 12.7040177485477
vertex 642.919548242606 22.237020619787 12.7044444971639
vertex 642.713979078044 22.4928385704645 12.7040770433646
endloop
endfacet
facet normal 6.39726969926211e-006 -1.82976586496867e-006 0.999999999977863
outer loop
vertex 652.357672051483 22.2370206198421 12.7039946142568
vertex 644.257672047109 26.2370206197842 12.7044510857044
vertex 642.919548242606 22.237020619787 12.7044444971639
endloop
endfacet
facet normal 6.39726969926211e-006 -1.82976586496867e-006 0.999999999977863
outer loop
vertex 644.257672047109 26.2370206197842 12.7044510857044
vertex 652.357672051483 22.2370206198421 12.7039946142568
vertex 650.457672047109 26.2370206197842 12.7044510857044
endloop
endfacet
facet normal 6.39726969926211e-006 -1.82976586496867e-006 0.999999999977863
outer loop
vertex 650.457672047109 26.2370206197842 12.7044510857044
vertex 652.357672051483 22.2370206198421 12.7039946142568
vertex 650.45767204711 43.2268206193709 12.7044212950396
endloop
endfacet
facet normal 6.39726969926211e-006 -1.82976586496867e-006 0.999999999977863
outer loop
vertex 642.45767204711 22.3088176713671 12.7040177485477
vertex 642.357672051494 44.7370206198111 12.7040023460909
vertex 642.357672051483 22.2370206198469 12.7039946142568
endloop
endfacet
facet normal 6.39726969926211e-006 -1.82976586496867e-006 0.999999999977863
outer loop
vertex 642.357672051494 44.7370206198111 12.7040023460909
vertex 642.45767204711 22.3088176713671 12.7040177485477
vertex 644.25767204711 43.226820619371 12.7044212950396
endloop
endfacet
facet normal 6.39726969926211e-006 -1.82976586496867e-006 0.999999999977863
outer loop
vertex 642.357672051494 44.7370206198111 12.7040023460909
vertex 644.25767204711 43.226820619371 12.7044212950396
vertex 652.357672051494 44.7370206198111 12.7040023460909
endloop
endfacet
facet normal 6.39726969926211e-006 -1.82976586496867e-006 0.999999999977863
outer loop
vertex 644.25767204711 43.226820619371 12.7044212950396
vertex 642.45767204711 22.3088176713671 12.7040177485477
vertex 642.713979078044 22.4928385704645 12.7040770433646
endloop
endfacet
facet normal 6.39726969926211e-006 -1.82976586496867e-006 0.999999999977863
outer loop
vertex 644.25767204711 43.226820619371 12.7044212950396
vertex 642.713979078044 22.4928385704645 12.7040770433646
vertex 642.919548242606 22.237020619787 12.7044444971639
endloop
endfacet
facet normal 6.39726969926211e-006 -1.82976586496867e-006 0.999999999977863
outer loop
vertex 644.25767204711 43.226820619371 12.7044212950396
vertex 642.919548242606 22.237020619787 12.7044444971639
vertex 644.257672047109 26.2370206197842 12.7044510857044
endloop
endfacet
facet normal 6.39726969926211e-006 -1.82976586496867e-006 0.999999999977863
outer loop
vertex 652.357672051494 44.7370206198111 12.7040023460909
vertex 644.25767204711 43.226820619371 12.7044212950396
vertex 650.45767204711 43.2268206193709 12.7044212950396
endloop
endfacet
facet normal 6.39726969926211e-006 -1.82976586496867e-006 0.999999999977863
outer loop
vertex 652.357672051494 44.7370206198111 12.7040023460909
vertex 650.45767204711 43.2268206193709 12.7044212950396
vertex 652.357672051483 22.2370206198421 12.7039946142568
endloop
endfacet
endsolid changer
